{
  "accessors": [
    {
      "bufferView": 1,
      "componentType": 5126,
      "count": 65532,
      "max": [
        1.0008379220962524,
        1.0013644695281982,
        0.051462512463331223
      ],
      "min": [
        -0.9386327862739563,
        -0.93794280290603638,
        -0.039579287171363831
      ],
      "type": "VEC3"
    },
    {
      "bufferView": 1,
      "byteOffset": 786384,
      "componentType": 5126,
      "count": 65532,
      "max": [
        0.76745742559432983,
        0.76076078414916992,
        0.99997419118881226
      ],
      "min": [
        -0.75777238607406616,
        -0.79276537895202637,
        0.59278625249862671
      ],
      "type": "VEC3"
    },
    {
      "bufferView": 0,
      "componentType": 5125,
      "count": 98298,
      "max": [
        65531
      ],
      "min": [
        0
      ],
      "type": "SCALAR"
    },
    {
      "bufferView": 1,
      "byteOffset": 1572768,
      "componentType": 5126,
      "count": 65532,
      "max": [
        1.0007994174957275,
        1.0010498762130737,
        0.049980133771896362
      ],
      "min": [
        -1.0004122257232666,
        -0.7506064772605896,
        -0.039550632238388062
      ],
      "type": "VEC3"
    },
    {
      "bufferView": 1,
      "byteOffset": 2359152,
      "componentType": 5126,
      "count": 65532,
      "max": [
        0.73341768980026245,
        0.67776674032211304,
        0.99999719858169556
      ],
      "min": [
        -0.70565080642700195,
        -0.77703475952148438,
        0.55997782945632935
      ],
      "type": "VEC3"
    },
    {
      "bufferView": 0,
      "byteOffset": 393192,
      "componentType": 5125,
      "count": 98298,
      "max": [
        65531
      ],
      "min": [
        0
      ],
      "type": "SCALAR"
    },
    {
      "bufferView": 1,
      "byteOffset": 3145536,
      "componentType": 5126,
      "count": 65532,
      "max": [
        1.0001249313354492,
        0.99996441602706909,
        0.042866602540016174
      ],
      "min": [
        -1.0008484125137329,
        -1.0012977123260498,
        -0.031478311866521835
      ],
      "type": "VEC3"
    },
    {
      "bufferView": 1,
      "byteOffset": 3931920,
      "componentType": 5126,
      "count": 65532,
      "max": [
        0.75553900003433228,
        0.67930823564529419,
        0.99999338388442993
      ],
      "min": [
        -0.81584858894348145,
        -0.71382933855056763,
        0.57310092449188232
      ],
      "type": "VEC3"
    },
    {
      "bufferView": 0,
      "byteOffset": 786384,
      "componentType": 5125,
      "count": 98298,
      "max": [
        65531
      ],
      "min": [
        0
      ],
      "type": "SCALAR"
    },
    {
      "bufferView": 1,
      "byteOffset": 4718304,
      "componentType": 5126,
      "count": 65532,
      "max": [
        1.0006667375564575,
        1.0011693239212036,
        0.042489167302846909
      ],
      "min": [
        -0.87550073862075806,
        -0.87560683488845825,
        -0.039579287171363831
      ],
      "type": "VEC3"
    },
    {
      "bufferView": 1,
      "byteOffset": 5504688,
      "componentType": 5126,
      "count": 65532,
      "max": [
        0.75185608863830566,
        0.68369197845458984,
        0.99999451637268066
      ],
      "min": [
        -0.71800416707992554,
        -0.70378285646438599,
        0.62557131052017212
      ],
      "type": "VEC3"
    },
    {
      "bufferView": 0,
      "byteOffset": 1179576,
      "componentType": 5125,
      "count": 98298,
      "max": [
        65531
      ],
      "min": [
        0
      ],
      "type": "SCALAR"
    },
    {
      "bufferView": 1,
      "byteOffset": 6291072,
      "componentType": 5126,
      "count": 16,
      "max": [
        0.968788743019104,
        0.93764662742614746,
        -0.001781785162165761
      ],
      "min": [
        0.93749815225601196,
        0.92948371171951294,
        -0.0040317634120583534
      ],
      "type": "VEC3"
    },
    {
      "bufferView": 1,
      "byteOffset": 6291264,
      "componentType": 5126,
      "count": 16,
      "max": [
        0.18409813940525055,
        0.025671198964118958,
        0.99925690889358521
      ],
      "min": [
        -0.036260992288589478,
        -0.043388687074184418,
        0.98283040523529053
      ],
      "type": "VEC3"
    },
    {
      "bufferView": 0,
      "byteOffset": 1572768,
      "componentType": 5125,
      "count": 24,
      "max": [
        15
      ],
      "min": [
        0
      ],
      "type": "SCALAR"
    }
  ],
  "asset": {
    "extras": {
      "author": "Anoy.Roy.Chowdhury (https://sketchfab.com/Anoy.Roy.Chowdhury)",
      "license": "CC-BY-4.0 (http://creativecommons.org/licenses/by/4.0/)",
      "source": "https://sketchfab.com/models/3a7b7c31795545968de6fdb788f2c4f7",
      "title": "Desert-Low Poly"
    },
    "generator": "Sketchfab-3.18.6",
    "version": "2.0"
  },
  "bufferViews": [
    {
      "buffer": 0,
      "byteLength": 1572864,
      "byteOffset": 0,
      "name": "floatBufferViews",
      "target": 34963
    },
    {
      "buffer": 0,
      "byteLength": 6291456,
      "byteOffset": 1572864,
      "byteStride": 12,
      "name": "floatBufferViews",
      "target": 34962
    }
  ],
  "buffers": [
    {
      "byteLength": 7864320,
      "uri": "scene.bin"
    }
  ],
  "materials": [
    {
      "doubleSided": true,
      "emissiveFactor": [
        0,
        0,
        0
      ],
      "name": "Material.001",
      "pbrMetallicRoughness": {
        "baseColorFactor": [
          0.80000000000000004,
          0.55544700000000002,
          0.20921500000000001,
          1
        ],
        "metallicFactor": 0,
        "roughnessFactor": 0.82394172570000002
      }
    }
  ],
  "meshes": [
    {
      "name": "Plane_Material.001_0",
      "primitives": [
        {
          "attributes": {
            "NORMAL": 1,
            "POSITION": 0
          },
          "indices": 2,
          "material": 0,
          "mode": 4
        }
      ]
    },
    {
      "name": "Plane_Material.001_0",
      "primitives": [
        {
          "attributes": {
            "NORMAL": 4,
            "POSITION": 3
          },
          "indices": 5,
          "material": 0,
          "mode": 4
        }
      ]
    },
    {
      "name": "Plane_Material.001_0",
      "primitives": [
        {
          "attributes": {
            "NORMAL": 7,
            "POSITION": 6
          },
          "indices": 8,
          "material": 0,
          "mode": 4
        }
      ]
    },
    {
      "name": "Plane_Material.001_0",
      "primitives": [
        {
          "attributes": {
            "NORMAL": 10,
            "POSITION": 9
          },
          "indices": 11,
          "material": 0,
          "mode": 4
        }
      ]
    },
    {
      "name": "Plane_Material.001_0",
      "primitives": [
        {
          "attributes": {
            "NORMAL": 13,
            "POSITION": 12
          },
          "indices": 14,
          "material": 0,
          "mode": 4
        }
      ]
    }
  ],
  "nodes": [
    {
      "children": [
        1
      ],
      "name": "RootNode (gltf orientation matrix)",
      "rotation": [
        -0.70710678118654746,
        -0,
        -0,
        0.70710678118654757
      ]
    },
    {
      "children": [
        2
      ],
      "name": "RootNode (model correction matrix)"
    },
    {
      "children": [
        3
      ],
      "matrix": [
        1,
        0,
        0,
        0,
        0,
        0,
        1,
        0,
        0,
        -1,
        0,
        0,
        0,
        0,
        0,
        1
      ],
      "name": "47bd57eaedb74b24b5ee87c0ef69ce67.fbx"
    },
    {
      "children": [
        4
      ],
      "name": "RootNode"
    },
    {
      "children": [
        5,
        6,
        7,
        8,
        9
      ],
      "matrix": [
        821.279052734375,
        0,
        0,
        0,
        0,
        -0.00013380334124176411,
        -821.2790527343642,
        0,
        0,
        821.2790527343642,
        -0.00013380334124176411,
        0,
        0,
        0,
        0,
        1
      ],
      "name": "Plane"
    },
    {
      "mesh": 0,
      "name": "Plane_Material.001_0"
    },
    {
      "mesh": 1,
      "name": "Plane_Material.001_0"
    },
    {
      "mesh": 2,
      "name": "Plane_Material.001_0"
    },
    {
      "mesh": 3,
      "name": "Plane_Material.001_0"
    },
    {
      "mesh": 4,
      "name": "Plane_Material.001_0"
    }
  ],
  "scene": 0,
  "scenes": [
    {
      "name": "OSG_Scene",
      "nodes": [
        0
      ]
    }
  ]
}

